<svg width="40" height="40" viewBox="0 0 40 40" fill="none" xmlns="http://www.w3.org/2000/svg">
<path d="M17.9375 4.98458V12.9435C17.9375 13.6025 17.8073 14.255 17.5543 14.8636C17.3014 15.4722 16.9307 16.0249 16.4635 16.4899C15.9963 16.9549 15.4418 17.3232 14.8319 17.5735C14.222 17.8238 13.5686 17.9513 12.9093 17.9486H4.98727C4.3297 17.9526 3.6781 17.8238 3.07153 17.57C2.46495 17.3163 1.91589 16.9427 1.45726 16.4717C0.991618 16.0102 0.622872 15.4603 0.372651 14.8545C0.12243 14.2486 -0.00422728 13.5989 0.000107625 12.9435V5.0051C9.65006e-05 3.68121 0.524872 2.41124 1.45956 1.47319C2.39425 0.535141 3.66271 0.00542577 4.98727 0H12.9298C13.5867 0.000630796 14.2369 0.131492 14.8428 0.385006C15.4487 0.63852 15.9983 1.00965 16.4598 1.47691C16.9267 1.93431 17.2978 2.48003 17.5515 3.08225C17.8052 3.68448 17.9364 4.33115 17.9375 4.98458ZM40 5.0051V12.9435C39.9894 14.2641 39.4611 15.5279 38.5287 16.4637C37.5963 17.3994 36.3341 17.9325 35.0128 17.9486H27.0498C25.7224 17.9405 24.4497 17.4185 23.4993 16.4922C23.0349 16.0255 22.6671 15.4718 22.4171 14.8629C22.167 14.254 22.0396 13.6017 22.0421 12.9435V5.0051C22.0405 4.34821 22.1703 3.69765 22.4241 3.09171C22.6779 2.48578 23.0504 1.93673 23.5198 1.47691C23.9812 1.00965 24.5308 0.63852 25.1368 0.385006C25.7427 0.131492 26.3929 0.000630796 27.0498 0H34.9923C36.3171 0.0107221 37.5846 0.541486 38.5214 1.47781C39.4582 2.41413 39.9893 3.68098 40 5.0051ZM40 27.0562V34.9946C39.9894 36.3152 39.4611 37.579 38.5287 38.5148C37.5963 39.4506 36.3341 39.9837 35.0128 39.9997H27.0498C25.7139 40.0133 24.4254 39.5055 23.4582 38.5844C22.992 38.119 22.623 37.5656 22.3728 36.9564C22.1227 36.3471 21.9963 35.6942 22.0011 35.0357V27.0973C21.9994 26.4404 22.1293 25.7898 22.3831 25.1839C22.6369 24.5779 23.0094 24.0289 23.4787 23.5691C23.9402 23.1018 24.4898 22.7307 25.0957 22.4772C25.7017 22.2237 26.3519 22.0928 27.0088 22.0922H34.9513C36.2761 22.1029 37.5436 22.6336 38.4804 23.57C39.4172 24.5063 39.9482 25.7731 39.959 27.0973L40 27.0562ZM17.9375 27.0767V35.0151C17.9213 36.3392 17.3851 37.6039 16.4444 38.5364C15.5038 39.4689 14.2341 39.9944 12.9093 39.9997H4.98727C4.33158 40.0024 3.68185 39.8754 3.07556 39.6258C2.46926 39.3763 1.9184 39.0092 1.45476 38.5458C0.991117 38.0824 0.623869 37.5319 0.374202 36.9259C0.124536 36.3199 -0.00260746 35.6705 0.000107625 35.0151V27.0767C0.00539484 25.7526 0.531234 24.4836 1.4642 23.5434C2.39717 22.6032 3.6625 22.0673 4.98727 22.0511H12.9298C14.2601 22.0647 15.5331 22.5943 16.4803 23.528C17.4164 24.4719 17.9403 25.7478 17.9375 27.0767Z" fill="white"/>
</svg>
