<svg width="41" height="41" viewBox="0 0 41 41" fill="none" xmlns="http://www.w3.org/2000/svg">
<path fill-rule="evenodd" clip-rule="evenodd" d="M7.32143 26.3572C7.90396 26.3572 8.46263 26.5886 8.87454 27.0005C9.28645 27.4124 9.51786 27.9711 9.51786 28.5536C9.51786 29.1362 9.28645 29.6948 8.87454 30.1068C8.46263 30.5187 7.90396 30.7501 7.32143 30.7501C6.7389 30.7501 6.18023 30.5187 5.76832 30.1068C5.35641 29.6948 5.125 29.1362 5.125 28.5536C5.125 27.9711 5.35641 27.4124 5.76832 27.0005C6.18023 26.5886 6.7389 26.3572 7.32143 26.3572ZM33.6771 27.0894C34.4869 27.0894 35.1429 27.7395 35.1429 28.5536C35.1429 29.3627 34.4913 30.0179 33.6771 30.0179H13.18C12.9875 30.0185 12.7968 29.981 12.6188 29.9077C12.4408 29.8343 12.279 29.7265 12.1428 29.5904C12.0066 29.4544 11.8986 29.2927 11.8251 29.1148C11.7516 28.9369 11.7139 28.7462 11.7143 28.5536C11.7143 27.7446 12.3659 27.0894 13.18 27.0894H33.6771ZM7.32143 19.0358C7.90396 19.0358 8.46263 19.2672 8.87454 19.6791C9.28645 20.091 9.51786 20.6497 9.51786 21.2322C9.51786 21.8147 9.28645 22.3734 8.87454 22.7853C8.46263 23.1972 7.90396 23.4286 7.32143 23.4286C6.7389 23.4286 6.18023 23.1972 5.76832 22.7853C5.35641 22.3734 5.125 21.8147 5.125 21.2322C5.125 20.6497 5.35641 20.091 5.76832 19.6791C6.18023 19.2672 6.7389 19.0358 7.32143 19.0358ZM33.6771 19.7679C34.4869 19.7679 35.1429 20.4181 35.1429 21.2322C35.1429 22.0412 34.4913 22.6965 33.6771 22.6965H13.18C12.9875 22.6971 12.7968 22.6596 12.6188 22.5862C12.4408 22.5129 12.279 22.4051 12.1428 22.269C12.0066 22.1329 11.8986 21.9713 11.8251 21.7934C11.7516 21.6154 11.7139 21.4247 11.7143 21.2322C11.7143 20.4232 12.3659 19.7679 13.18 19.7679H33.6771ZM7.32143 11.7144C7.90396 11.7144 8.46263 11.9458 8.87454 12.3577C9.28645 12.7696 9.51786 13.3283 9.51786 13.9108C9.51786 14.4933 9.28645 15.052 8.87454 15.4639C8.46263 15.8758 7.90396 16.1072 7.32143 16.1072C6.7389 16.1072 6.18023 15.8758 5.76832 15.4639C5.35641 15.052 5.125 14.4933 5.125 13.9108C5.125 13.3283 5.35641 12.7696 5.76832 12.3577C6.18023 11.9458 6.7389 11.7144 7.32143 11.7144ZM33.6771 12.4465C34.4869 12.4465 35.1429 13.0966 35.1429 13.9108C35.1429 14.7198 34.4913 15.3751 33.6771 15.3751H13.18C12.9875 15.3756 12.7968 15.3382 12.6188 15.2648C12.4408 15.1915 12.279 15.0836 12.1428 14.9476C12.0066 14.8115 11.8986 14.6499 11.8251 14.4719C11.7516 14.294 11.7139 14.1033 11.7143 13.9108C11.7143 13.1018 12.3659 12.4465 13.18 12.4465H33.6771Z" fill="black"/>
</svg>
