<svg width="22" height="22" viewBox="0 0 22 22" fill="none" xmlns="http://www.w3.org/2000/svg">
<path d="M3.75 5H2.5C1.83696 5 1.20107 5.26339 0.732233 5.73223C0.263392 6.20107 0 6.83696 0 7.5V18.75C0 19.413 0.263392 20.0489 0.732233 20.5178C1.20107 20.9866 1.83696 21.25 2.5 21.25H13.75C14.413 21.25 15.0489 20.9866 15.5178 20.5178C15.9866 20.0489 16.25 19.413 16.25 18.75V17.5" stroke="black" stroke-width="2" stroke-linecap="round" stroke-linejoin="round"/>
<path d="M15 2.50013L18.75 6.25013M20.4813 4.48138C20.9736 3.98908 21.2501 3.32136 21.2501 2.62513C21.2501 1.9289 20.9736 1.26119 20.4813 0.768884C19.9889 0.276576 19.3212 8.98468e-09 18.625 0C17.9288 -8.98468e-09 17.2611 0.276576 16.7688 0.768884L6.25 11.2501V15.0001H10L20.4813 4.48138Z" stroke="black" stroke-width="2" stroke-linecap="round" stroke-linejoin="round"/>
</svg>
