<svg width="16" height="26" viewBox="0 0 16 26" fill="none" xmlns="http://www.w3.org/2000/svg">
<path d="M0.917969 24.5833C0.917969 24.2518 1.04967 23.9339 1.28409 23.6994C1.51851 23.465 1.83645 23.3333 2.16797 23.3333H12.168C12.2785 23.3333 12.3845 23.2894 12.4626 23.2113C12.5407 23.1332 12.5846 23.0272 12.5846 22.9167V2.91667C12.5846 2.80616 12.5407 2.70018 12.4626 2.62204C12.3845 2.5439 12.2785 2.5 12.168 2.5H2.16797C1.83645 2.5 1.51851 2.3683 1.28409 2.13388C1.04967 1.89946 0.917969 1.58152 0.917969 1.25C0.917969 0.918479 1.04967 0.600537 1.28409 0.366116C1.51851 0.131696 1.83645 0 2.16797 0H12.168C13.778 0 15.0846 1.30667 15.0846 2.91667V22.9167C15.0846 23.6902 14.7773 24.4321 14.2304 24.9791C13.6834 25.526 12.9415 25.8333 12.168 25.8333H2.16797C1.83645 25.8333 1.51851 25.7016 1.28409 25.4672C1.04967 25.2328 0.917969 24.9149 0.917969 24.5833Z" fill="white"/>
</svg>
