<svg width="22" height="25" viewBox="0 0 22 25" fill="none" xmlns="http://www.w3.org/2000/svg">
<path fill-rule="evenodd" clip-rule="evenodd" d="M7.42188 4.6875V2.34375H14.4531V4.6875H7.42188ZM5.07812 4.6875V1.5625C5.07812 1.1481 5.24275 0.750671 5.53577 0.457646C5.8288 0.16462 6.22622 0 6.64062 0L15.2344 0C15.6488 0 16.0462 0.16462 16.3392 0.457646C16.6323 0.750671 16.7969 1.1481 16.7969 1.5625V4.6875H20.7031C21.0139 4.6875 21.312 4.81097 21.5318 5.03073C21.7515 5.2505 21.875 5.54857 21.875 5.85938C21.875 6.17018 21.7515 6.46825 21.5318 6.68802C21.312 6.90778 21.0139 7.03125 20.7031 7.03125H20.1328L18.9719 22.1141C18.9116 22.8991 18.5573 23.6325 17.9796 24.1676C17.402 24.7027 16.6436 24.9999 15.8562 25H6.01875C5.23137 24.9999 4.47303 24.7027 3.89538 24.1676C3.31773 23.6325 2.96336 22.8991 2.90313 22.1141L1.74219 7.03125H1.17188C0.861074 7.03125 0.563003 6.90778 0.343234 6.68802C0.123465 6.46825 0 6.17018 0 5.85938C0 5.54857 0.123465 5.2505 0.343234 5.03073C0.563003 4.81097 0.861074 4.6875 1.17188 4.6875H5.07812ZM4.09375 7.03125H17.7812L16.6344 21.9344C16.6194 22.1306 16.531 22.3139 16.3867 22.4477C16.2425 22.5816 16.053 22.656 15.8562 22.6562H6.01875C5.82198 22.656 5.63253 22.5816 5.48828 22.4477C5.34402 22.3139 5.25558 22.1306 5.24063 21.9344L4.09375 7.03125Z" fill="black"/>
</svg>
