<svg width="34" height="34" viewBox="0 0 34 34" fill="none" xmlns="http://www.w3.org/2000/svg">
<path d="M26.9876 6.95656C25.6886 5.64488 24.1416 4.60485 22.4366 3.89707C20.7316 3.1893 18.9028 2.82794 17.0568 2.83406C9.3218 2.83406 3.01763 9.13823 3.01763 16.8732C3.01763 19.3524 3.6693 21.7607 4.88763 23.8857L2.9043 31.1674L10.3418 29.2124C12.396 30.3316 14.7051 30.9266 17.0568 30.9266C24.7918 30.9266 31.096 24.6224 31.096 16.8874C31.096 13.1332 29.6368 9.60573 26.9876 6.95656ZM17.0568 28.5466C14.9601 28.5466 12.906 27.9799 11.1068 26.9174L10.6818 26.6624L6.2618 27.8241L7.43763 23.5174L7.1543 23.0782C5.98916 21.2182 5.37061 19.068 5.3693 16.8732C5.3693 10.4416 10.611 5.19989 17.0426 5.19989C20.1593 5.19989 23.0918 6.41823 25.2876 8.62823C26.3751 9.71037 27.2369 10.9977 27.8229 12.4154C28.409 13.8332 28.7077 15.3533 28.7018 16.8874C28.7301 23.3191 23.4885 28.5466 17.0568 28.5466ZM23.4601 19.8199C23.106 19.6499 21.3776 18.7999 21.066 18.6724C20.7401 18.5591 20.5135 18.5024 20.2726 18.8424C20.0318 19.1966 19.366 19.9899 19.1676 20.2166C18.9693 20.4574 18.7568 20.4857 18.4026 20.3016C18.0485 20.1316 16.9151 19.7491 15.5835 18.5591C14.5351 17.6241 13.841 16.4766 13.6285 16.1224C13.4301 15.7682 13.6001 15.5841 13.7843 15.3999C13.9401 15.2441 14.1385 14.9891 14.3085 14.7907C14.4785 14.5924 14.5493 14.4366 14.6626 14.2099C14.776 13.9691 14.7193 13.7707 14.6343 13.6007C14.5493 13.4307 13.841 11.7024 13.5576 10.9941C13.2743 10.3141 12.9768 10.3991 12.7643 10.3849H12.0843C11.8435 10.3849 11.4751 10.4699 11.1493 10.8241C10.8376 11.1782 9.93096 12.0282 9.93096 13.7566C9.93096 15.4849 11.1918 17.1566 11.3618 17.3832C11.5318 17.6241 13.841 21.1657 17.3543 22.6816C18.1901 23.0499 18.8418 23.2624 19.3518 23.4182C20.1876 23.6874 20.9526 23.6449 21.5618 23.5599C22.2418 23.4607 23.6443 22.7099 23.9276 21.8882C24.2251 21.0666 24.2251 20.3724 24.126 20.2166C24.0268 20.0607 23.8143 19.9899 23.4601 19.8199Z" fill="#3A3A3A"/>
</svg>
