<svg width="34" height="34" viewBox="0 0 34 34" fill="none" xmlns="http://www.w3.org/2000/svg">
<path d="M25.4993 14.1667H24.0827V11.3333C24.0827 7.42333 20.9093 4.25 16.9993 4.25C13.0893 4.25 9.91602 7.42333 9.91602 11.3333V14.1667H8.49935C6.94102 14.1667 5.66602 15.4417 5.66602 17V31.1667C5.66602 32.725 6.94102 34 8.49935 34H25.4993C27.0577 34 28.3327 32.725 28.3327 31.1667V17C28.3327 15.4417 27.0577 14.1667 25.4993 14.1667ZM16.9993 26.9167C15.441 26.9167 14.166 25.6417 14.166 24.0833C14.166 22.525 15.441 21.25 16.9993 21.25C18.5577 21.25 19.8327 22.525 19.8327 24.0833C19.8327 25.6417 18.5577 26.9167 16.9993 26.9167ZM21.391 14.1667H12.6077V11.3333C12.6077 8.91083 14.5768 6.94167 16.9993 6.94167C19.4218 6.94167 21.391 8.91083 21.391 11.3333V14.1667Z" fill="#3A3A3A"/>
</svg>
