<svg width="46" height="46" viewBox="0 0 46 46" fill="none" xmlns="http://www.w3.org/2000/svg">
<path d="M30.6667 24.9165C30.6667 23.8623 29.8042 22.9998 28.75 22.9998H23C21.9458 22.9998 21.0833 23.8623 21.0833 24.9165C21.0833 25.9707 21.9458 26.8332 23 26.8332H28.75C29.8042 26.8332 30.6667 25.9707 30.6667 24.9165ZM23 11.4998C30.3964 11.4998 36.4167 17.5201 36.4167 24.9165C36.4167 32.3129 30.3964 38.3332 23 38.3332C15.6036 38.3332 9.58333 32.3129 9.58333 24.9165C9.58333 17.5201 15.6036 11.4998 23 11.4998ZM23 7.6665C13.4722 7.6665 5.75 15.3888 5.75 24.9165C5.75 34.4443 13.4722 42.1665 23 42.1665C32.5278 42.1665 40.25 34.4443 40.25 24.9165C40.25 15.3888 32.5278 7.6665 23 7.6665ZM24.9167 19.1665C24.9167 18.1123 24.0542 17.2498 23 17.2498C21.9458 17.2498 21.0833 18.1123 21.0833 19.1665V24.9165C21.0833 25.9707 21.9458 26.8332 23 26.8332C24.0542 26.8332 24.9167 25.9707 24.9167 24.9165V19.1665ZM23 15.3332C28.2843 15.3332 32.5833 19.6323 32.5833 24.9165C32.5833 30.2008 28.2843 34.4998 23 34.4998C17.7157 34.4998 13.4167 30.2008 13.4167 24.9165C13.4167 19.6323 17.7157 15.3332 23 15.3332ZM23 13.4165C19.95 13.4165 17.0249 14.6281 14.8683 16.7848C12.7116 18.9414 11.5 21.8665 11.5 24.9165C11.5 27.9665 12.7116 30.8916 14.8683 33.0482C17.0249 35.2049 19.95 36.4165 23 36.4165C26.05 36.4165 28.9751 35.2049 31.1317 33.0482C33.2884 30.8916 34.5 27.9665 34.5 24.9165C34.5 21.8665 33.2884 18.9414 31.1317 16.7848C28.9751 14.6281 26.05 13.4165 23 13.4165Z" fill="#14AE5C"/>
</svg>
