<svg width="46" height="46" viewBox="0 0 46 46" fill="none" xmlns="http://www.w3.org/2000/svg">
<path d="M30.6667 24.9166C30.6667 23.8625 29.8042 23 28.75 23H23C21.9458 23 21.0833 23.8625 21.0833 24.9166C21.0833 25.9708 21.9458 26.8333 23 26.8333H28.75C29.8042 26.8333 30.6667 25.9708 30.6667 24.9166ZM23 11.5C30.3964 11.5 36.4167 17.5202 36.4167 24.9166C36.4167 32.313 30.3964 38.3333 23 38.3333C15.6036 38.3333 9.58333 32.313 9.58333 24.9166C9.58333 17.5202 15.6036 11.5 23 11.5ZM23 7.66663C13.4722 7.66663 5.75 15.3889 5.75 24.9166C5.75 34.4444 13.4722 42.1666 23 42.1666C32.5278 42.1666 40.25 34.4444 40.25 24.9166C40.25 15.3889 32.5278 7.66663 23 7.66663ZM24.9167 19.1666C24.9167 18.1125 24.0542 17.25 23 17.25C21.9458 17.25 21.0833 18.1125 21.0833 19.1666V24.9166C21.0833 25.9708 21.9458 26.8333 23 26.8333C24.0542 26.8333 24.9167 25.9708 24.9167 24.9166V19.1666ZM23 15.3333C28.2843 15.3333 32.5833 19.6324 32.5833 24.9166C32.5833 30.2009 28.2843 34.5 23 34.5C17.7157 34.5 13.4167 30.2009 13.4167 24.9166C13.4167 19.6324 17.7157 15.3333 23 15.3333ZM23 13.4166C19.95 13.4166 17.0249 14.6282 14.8683 16.7849C12.7116 18.9416 11.5 21.8666 11.5 24.9166C11.5 27.9666 12.7116 30.8917 14.8683 33.0484C17.0249 35.205 19.95 36.4166 23 36.4166C26.05 36.4166 28.9751 35.205 31.1317 33.0484C33.2884 30.8917 34.5 27.9666 34.5 24.9166C34.5 21.8666 33.2884 18.9416 31.1317 16.7849C28.9751 14.6282 26.05 13.4166 23 13.4166Z" fill="#FFA629"/>
</svg>
