<svg width="34" height="34" viewBox="0 0 34 34" fill="none" xmlns="http://www.w3.org/2000/svg">
<path d="M16.9993 2.83398C11.0493 2.83398 5.66602 7.39565 5.66602 14.4507C5.66602 18.9557 9.13685 24.254 16.0643 30.3598C16.6027 30.8273 17.4102 30.8273 17.9485 30.3598C24.8618 24.254 28.3327 18.9557 28.3327 14.4507C28.3327 7.39565 22.9493 2.83398 16.9993 2.83398ZM16.9993 17.0007C15.441 17.0007 14.166 15.7257 14.166 14.1673C14.166 12.609 15.441 11.334 16.9993 11.334C18.5577 11.334 19.8327 12.609 19.8327 14.1673C19.8327 15.7257 18.5577 17.0007 16.9993 17.0007Z" fill="#3A3A3A"/>
</svg>
