<svg width="38" height="38" viewBox="0 0 38 38" fill="none" xmlns="http://www.w3.org/2000/svg">
<g clip-path="url(#clip0_799_13025)">
<path d="M19.0002 2.11133C15.6599 2.11133 12.3946 3.10184 9.61726 4.95762C6.8399 6.81339 4.67521 9.45108 3.39693 12.5371C2.11865 15.6232 1.78419 19.019 2.43585 22.2951C3.08751 25.5712 4.69602 28.5805 7.05798 30.9425C9.41993 33.3044 12.4292 34.9129 15.7054 35.5646C18.9815 36.2163 22.3773 35.8818 25.4633 34.6035C28.5494 33.3252 31.187 31.1605 33.0428 28.3832C34.8986 25.6058 35.8891 22.3405 35.8891 19.0002C35.8891 14.521 34.1098 10.2253 30.9425 7.05797C27.7752 3.89069 23.4794 2.11133 19.0002 2.11133ZM27.4447 25.4391C27.7246 25.7191 27.8819 26.0988 27.8819 26.4947C27.8819 26.8906 27.7246 27.2703 27.4447 27.5502C27.1647 27.8302 26.785 27.9874 26.3891 27.9874C25.9932 27.9874 25.6135 27.8302 25.3336 27.5502L19.0002 21.2169L12.6669 27.5713C12.5283 27.7099 12.3637 27.8199 12.1826 27.8949C12.0015 27.9699 11.8074 28.0086 11.6113 28.0086C11.4153 28.0086 11.2212 27.9699 11.0401 27.8949C10.859 27.8199 10.6944 27.7099 10.5558 27.5713C10.4172 27.4327 10.3072 27.2681 10.2322 27.087C10.1572 26.9059 10.1186 26.7118 10.1186 26.5158C10.1186 26.3197 10.1572 26.1256 10.2322 25.9445C10.3072 25.7634 10.4172 25.5988 10.5558 25.4602L16.8891 19.0847L10.3763 12.5191C10.0964 12.2392 9.93911 11.8595 9.93911 11.4636C9.93911 11.0676 10.0964 10.6879 10.3763 10.408C10.6563 10.128 11.036 9.97077 11.4319 9.97077C11.8278 9.97077 12.2075 10.128 12.4874 10.408L19.0002 16.9947L25.513 10.4819C25.6516 10.3433 25.8162 10.2333 25.9973 10.1583C26.1784 10.0833 26.3725 10.0447 26.5686 10.0447C26.7646 10.0447 26.9587 10.0833 27.1398 10.1583C27.3209 10.2333 27.4855 10.3433 27.6241 10.4819C27.7627 10.6205 27.8727 10.7851 27.9477 10.9662C28.0227 11.1473 28.0613 11.3414 28.0613 11.5374C28.0613 11.7335 28.0227 11.9276 27.9477 12.1087C27.8727 12.2898 27.7627 12.4544 27.6241 12.593L21.1113 19.0847L27.4447 25.4391Z" fill="#C00F0C"/>
</g>
<defs>
<clipPath id="clip0_799_13025">
<rect width="38" height="38" fill="white"/>
</clipPath>
</defs>
</svg>
