<svg width="21" height="14" viewBox="0 0 21 14" fill="none" xmlns="http://www.w3.org/2000/svg">
<path d="M20.1883 8.7747C20.1883 9.21673 20.0127 9.64065 19.7001 9.95321C19.3876 10.2658 18.9636 10.4414 18.5216 10.4414H10.4283C10.3894 11.0336 10.3416 11.6258 10.2849 12.218L10.2349 12.7264C10.2163 12.9179 10.1518 13.1022 10.0467 13.2635C9.94172 13.4248 9.79934 13.5584 9.63167 13.653C9.46401 13.7475 9.27601 13.8002 9.08363 13.8066C8.89126 13.813 8.70018 13.7729 8.5266 13.6897C5.47907 12.2309 2.72073 10.2326 0.384939 7.79137L0.334939 7.7397C0.120033 7.51617 0 7.21812 0 6.90803C0 6.59795 0.120033 6.2999 0.334939 6.07637L0.384939 6.0247C2.72073 3.58348 5.47907 1.58516 8.5266 0.126367C8.70018 0.0431626 8.89126 0.0030555 9.08363 0.00944958C9.27601 0.0158437 9.46401 0.0685501 9.63167 0.163096C9.79934 0.257642 9.94172 0.391238 10.0467 0.552547C10.1518 0.713857 10.2163 0.898118 10.2349 1.0897L10.2849 1.59803C10.3416 2.18914 10.3894 2.78137 10.4283 3.3747H18.5216C18.9636 3.3747 19.3876 3.55029 19.7001 3.86286C20.0127 4.17542 20.1883 4.59934 20.1883 5.04137V8.7747Z" fill="white"/>
</svg>
