<svg width="60" height="60" viewBox="0 0 60 60" fill="none" xmlns="http://www.w3.org/2000/svg">
<path fill-rule="evenodd" clip-rule="evenodd" d="M29.5108 59.9961L29.9999 60C29.3376 59.9999 28.6755 59.9783 28.0146 59.9353C27.1967 59.8818 26.3813 59.795 25.5705 59.6752C24.6286 59.5357 23.6938 59.3513 22.7694 59.1228C21.8582 58.8973 20.9581 58.6288 20.0722 58.3184L20.0673 58.3166C18.6084 57.8049 17.1916 57.1805 15.8296 56.4491C14.8629 55.9301 13.9255 55.3584 13.0216 54.7365C12.0051 54.0376 11.0325 53.2768 10.1094 52.4584C9.78685 52.1726 9.47046 51.8799 9.16045 51.5805C3.51225 46.1248 0 38.4726 0 29.9999C0 13.4315 13.4315 3.2962e-10 29.9999 3.2962e-10C33.9396 -1.84668e-05 37.8407 0.775939 41.4804 2.28357C45.1202 3.7912 48.4274 6.00097 51.2132 8.78673C53.9989 11.5725 56.2087 14.8797 57.7164 18.5194C59.224 22.1592 60 26.0603 60 29.9999C60 38.4729 56.4875 46.1254 50.8391 51.5808C50.8389 51.5812 50.8389 51.5817 50.8391 51.5825C49.4182 52.954 47.866 54.1828 46.205 55.2511L46.1818 55.2659C45.8051 55.5079 45.423 55.7412 45.0357 55.9658L44.9948 55.9897C44.3172 56.3812 43.6246 56.7462 42.9186 57.0837C42.6422 57.2154 42.364 57.3431 42.084 57.4668C41.7919 57.5952 41.4978 57.7192 41.202 57.8387C40.9151 57.954 40.6265 58.065 40.3364 58.1717C40.0431 58.2791 39.7482 58.3821 39.4519 58.4807C39.1605 58.5771 38.8678 58.6691 38.5737 58.7569C38.2621 58.8495 37.9491 58.9371 37.6347 59.0198C37.3288 59.1 37.0216 59.1753 36.7134 59.246C36.4058 59.3161 36.0971 59.3815 35.7875 59.4421C34.5254 59.6888 33.2487 59.854 31.9654 59.9366C31.6465 59.9572 31.3272 59.9728 31.0078 59.9834L31.0016 59.9835C30.5049 59.9999 30.0078 60.004 29.5108 59.9961ZM33 42H27C22.2211 42 18.0416 44.8121 16.1203 48.9238L15.903 49.4219L16.091 49.561C19.5104 51.9966 23.5957 53.5583 28.0208 53.9195C28.1529 53.9303 28.2852 53.94 28.4179 53.9486L28.0391 53.9209C28.168 53.9314 28.2971 53.9408 28.4266 53.9492L28.4179 53.9486C28.5461 53.9571 28.6746 53.9644 28.8032 53.9707L28.4266 53.9492C28.5602 53.9579 28.6942 53.9655 28.8285 53.9718L28.8032 53.9707C28.8997 53.9754 28.9961 53.9795 29.0926 53.9831L29.9999 54L30.3761 53.9971C30.5144 53.995 30.6527 53.9918 30.7909 53.9873L30.4113 53.9964C30.5392 53.9944 30.667 53.9912 30.7945 53.987L30.7909 53.9872C30.9195 53.983 31.0478 53.9779 31.176 53.9717L30.7945 53.987C30.9266 53.9826 31.0588 53.9773 31.1909 53.9708L31.176 53.9717C31.3095 53.9651 31.4426 53.9576 31.5753 53.9492L31.1909 53.9708C31.3209 53.9646 31.4508 53.9572 31.5804 53.9488L31.5755 53.949C31.7054 53.9406 31.8351 53.9312 31.9645 53.9208L31.5803 53.9488C31.7125 53.9401 31.8445 53.9305 31.9764 53.9198L31.9645 53.9208C32.0901 53.9105 32.2154 53.8993 32.3405 53.8873L31.9764 53.9198C32.1077 53.9091 32.2386 53.8973 32.3693 53.8845L32.3405 53.8873C36.6177 53.4733 40.5665 51.9366 43.8885 49.5755L44.0939 49.4219L43.8799 48.9244C42.0426 44.9914 38.1386 42.247 33.6199 42.0158L33 42ZM29.9999 6.00004C16.7452 6.00004 6.00004 16.7452 6.00004 29.9999C6.00004 35.7239 8.00381 40.9799 11.3481 45.1044C14.4458 39.6662 20.2947 36 27 36H33C39.7054 36 45.5544 39.6665 48.6516 45.104C51.9961 40.9799 54 35.7239 54 29.9999C54 16.7452 43.2548 6.00004 29.9999 6.00004ZM29.9999 8.99999C36.6274 8.99999 42 14.3726 42 20.9999C42 27.4265 36.9481 32.6732 30.5989 32.9854L29.9999 33C23.3726 33 18 27.6274 18 20.9999C18 14.5734 23.0519 9.32666 29.401 9.01462L29.9999 8.99999ZM29.9999 15C26.6862 15 24 17.6863 24 20.9999C24 24.3136 26.6862 27 29.9999 27C33.3136 27 36 24.3136 36 20.9999C36 17.6863 33.3136 15 29.9999 15Z" fill="#3A3A3A"/>
</svg>
