<svg width="55" height="57" viewBox="0 0 55 57" fill="none" xmlns="http://www.w3.org/2000/svg">
<path d="M53.8438 39.3542C53.6062 39.0997 53.3729 38.8452 53.144 38.5997C49.9956 35.214 48.0908 33.1707 48.0908 23.5863C48.0908 18.6242 46.7556 14.5528 44.1238 11.4992C42.1833 9.24341 39.5601 7.53214 36.1026 6.26746C36.0581 6.24545 36.0184 6.21659 35.9853 6.18221C34.7416 2.47975 31.3385 0 27.5004 0C23.6622 0 20.2605 2.47975 19.0169 6.17839C18.9838 6.21156 18.9446 6.23952 18.901 6.26109C10.8325 9.21415 6.91134 14.8798 6.91134 23.5825C6.91134 33.1707 5.00943 35.214 1.85818 38.5959C1.62921 38.8414 1.39594 39.0908 1.15838 39.3504C0.544734 40.0083 0.155938 40.8088 0.0380055 41.657C-0.0799268 42.5053 0.0779415 43.3658 0.492928 44.1368C1.37591 45.7909 3.25778 46.8176 5.40584 46.8176H49.6106C51.7487 46.8176 53.6176 45.7921 54.5035 44.1457C54.9203 43.3746 55.0796 42.5133 54.9627 41.6641C54.8458 40.8148 54.4575 40.0132 53.8438 39.3542ZM27.5004 57C29.5683 56.9985 31.5973 56.4994 33.372 55.5557C35.1468 54.612 36.6012 53.2588 37.5809 51.6397C37.6271 51.5621 37.6499 51.4752 37.6471 51.3875C37.6443 51.2997 37.6161 51.2141 37.5651 51.139C37.5141 51.0638 37.4421 51.0016 37.3561 50.9585C37.2701 50.9154 37.173 50.8928 37.0743 50.8929H17.9293C17.8304 50.8926 17.7332 50.915 17.647 50.958C17.5608 51.0011 17.4886 51.0632 17.4374 51.1384C17.3863 51.2136 17.3579 51.2993 17.3551 51.3872C17.3522 51.475 17.375 51.562 17.4212 51.6397C18.4009 53.2586 19.855 54.6117 21.6295 55.5554C23.404 56.4991 25.4326 56.9983 27.5004 57Z" fill="#3A3A3A"/>
</svg>
